<svg width="294" height="295" viewBox="0 0 294 295" fill="none" xmlns="http://www.w3.org/2000/svg">
<path d="M132.846 22.8431C105.38 50.3498 77.9262 77.7765 50.4862 105.123C45.4129 110.183 42.0295 114.233 40.3362 117.273C37.1829 122.94 35.6529 129.05 35.7462 135.603C35.7662 137.13 35.9295 140.53 36.2362 145.803" stroke="#CB1028" stroke-width="2"/>
<path d="M77.6662 187.173C77.4929 185.973 77.0395 184.93 76.3062 184.043C65.8462 171.423 49.8162 145.213 56.5062 128.393C57.2795 126.453 58.7929 124.357 61.0462 122.103C88.2529 94.9165 115.45 67.7232 142.636 40.5232C144.53 38.6299 145.99 37.3799 147.016 36.7732" stroke="#CB1028" stroke-width="2"/>
<path d="M132.846 22.8431C105.38 50.3498 77.9262 77.7765 50.4862 105.123C45.4128 110.183 42.0295 114.233 40.3362 117.273C37.1828 122.94 35.6528 129.05 35.7462 135.603C35.7662 137.13 35.9295 140.53 36.2362 145.803C32.2495 141.936 28.3595 138.173 24.5662 134.513C-0.203831 110.653 -7.37383 73.7531 8.26617 42.6831C26.4662 6.51314 68.9862 -9.15687 106.636 5.45313C116.576 9.30646 125.313 15.1031 132.846 22.8431Z" fill="#F1F6F3"/>
<path d="M77.6662 187.173C77.4928 185.973 77.0395 184.93 76.3062 184.043C65.8462 171.423 49.8162 145.213 56.5062 128.393C57.2795 126.453 58.7929 124.356 61.0462 122.103C88.2528 94.9165 115.45 67.7231 142.636 40.5231C144.53 38.6298 145.99 37.3798 147.016 36.7731C154.336 29.7131 162.136 21.0431 169.096 15.7331C188.926 0.633142 215.506 -3.86686 239.116 3.40314C266.616 11.8731 287.136 34.7331 292.506 63.0231C297.176 87.6631 289.736 113.553 271.856 131.483C240.863 162.563 209.85 193.616 178.816 224.643C172.663 230.796 169.363 234.026 168.916 234.333C153.136 245.253 123.786 228.173 111.356 218.463C100.056 209.63 88.8262 199.2 77.6662 187.173ZM156.659 219.463C160.49 215.619 159.812 207.596 154.774 197.159C149.737 186.723 140.753 174.727 129.798 163.811C118.844 152.894 106.817 143.952 96.3625 138.951C85.9082 133.95 77.8832 133.3 74.0529 137.144C70.2226 140.987 70.9008 149.01 75.9382 159.447C80.9757 169.884 89.9598 181.88 100.914 192.796C111.868 203.712 123.896 212.654 134.35 217.655C144.804 222.656 152.829 223.306 156.659 219.463Z" fill="#0A5D5D"/>
<path d="M132.846 22.8431L147.016 36.7731C145.99 37.3798 144.53 38.6298 142.636 40.5231C115.45 67.7231 88.2529 94.9165 61.0462 122.103C58.7929 124.356 57.2795 126.453 56.5062 128.393C49.8162 145.213 65.8462 171.423 76.3062 184.043C77.0395 184.93 77.4929 185.973 77.6662 187.173L36.2362 145.803C35.9295 140.53 35.7662 137.13 35.7462 135.603C35.6529 129.05 37.1829 122.94 40.3362 117.273C42.0295 114.233 45.4129 110.183 50.4862 105.123C77.9262 77.7765 105.38 50.3498 132.846 22.8431Z" fill="#DCDAB1"/>
<path d="M29.6662 235.023C37.5418 235.023 43.9262 228.639 43.9262 220.763C43.9262 212.888 37.5418 206.503 29.6662 206.503C21.7906 206.503 15.4062 212.888 15.4062 220.763C15.4062 228.639 21.7906 235.023 29.6662 235.023Z" fill="#DCDAB1"/>
<path d="M87.2362 263.843C100.717 263.843 111.646 252.914 111.646 239.433C111.646 225.952 100.717 215.023 87.2362 215.023C73.7549 215.023 62.8262 225.952 62.8262 239.433C62.8262 252.914 73.7549 263.843 87.2362 263.843Z" fill="#0A5D5D"/>
<path d="M67.4862 294.073C73.3515 294.073 78.1062 289.318 78.1062 283.453C78.1062 277.588 73.3515 272.833 67.4862 272.833C61.6209 272.833 56.8662 277.588 56.8662 283.453C56.8662 289.318 61.6209 294.073 67.4862 294.073Z" fill="#DCDAB1"/>
</svg>
